<?xml version="1.0" encoding="utf-8"?>
<!-- Generator: Adobe Illustrator 18.1.0, SVG Export Plug-In . SVG Version: 6.00 Build 0)  -->
<svg version="1.1" id="Layer_1" xmlns="http://www.w3.org/2000/svg" xmlns:xlink="http://www.w3.org/1999/xlink" x="0px" y="0px"
	 viewBox="0 0 48 48" enable-background="new 0 0 48 48" xml:space="preserve">
<g>
	<g>
		<path fill="#C60000" d="M24,47.7C10.9,47.7,0.3,37.1,0.3,24S10.9,0.3,24,0.3S47.7,10.9,47.7,24S37.1,47.7,24,47.7z"/>
		<path fill="#FFFFFF" d="M24,0.6c12.9,0,23.4,10.5,23.4,23.4c0,12.9-10.5,23.4-23.4,23.4S0.6,36.9,0.6,24C0.6,11.1,11.1,0.6,24,0.6
			 M24,0C10.7,0,0,10.7,0,24c0,13.3,10.7,24,24,24c13.3,0,24-10.7,24-24C48,10.7,37.3,0,24,0L24,0z"/>
	</g>
	<g>
		<g>
			<line fill="none" stroke="#FFFFFF" stroke-width="4.3449" stroke-miterlimit="10" x1="14.6" y1="14.6" x2="33.4" y2="33.4"/>
		</g>
		<g>
			<line fill="none" stroke="#FFFFFF" stroke-width="4.3449" stroke-miterlimit="10" x1="33.4" y1="14.6" x2="14.6" y2="33.4"/>
		</g>
	</g>
</g>
</svg>
